<?xml version="1.0" standalone="no"?>
<!DOCTYPE svg PUBLIC "-//W3C//DTD SVG 20010904//EN"
 "http://www.w3.org/TR/2001/REC-SVG-20010904/DTD/svg10.dtd">
<svg version="1.0" xmlns="http://www.w3.org/2000/svg"
 width="512.000000pt" height="512.000000pt" viewBox="0 0 512.000000 512.000000"
 preserveAspectRatio="xMidYMid meet">
<metadata>
Created by potrace 1.14, written by Peter Selinger 2001-2017
</metadata>
<g transform="translate(0.000000,512.000000) scale(0.100000,-0.100000)"
fill="#000000" stroke="none">
<path d="M2429 5116 c-2 -2 -36 -7 -75 -10 -39 -4 -80 -8 -90 -10 -11 -2 -41
-7 -69 -10 -27 -4 -106 -21 -175 -37 -851 -201 -1536 -821 -1826 -1653 -45
-131 -68 -220 -99 -388 -26 -142 -39 -284 -39 -438 0 -106 12 -313 19 -340 2
-8 6 -35 9 -60 15 -116 83 -389 115 -465 5 -11 24 -58 42 -105 48 -124 150
-319 233 -445 128 -194 253 -338 451 -520 43 -40 179 -144 259 -199 292 -202
731 -370 1081 -412 28 -3 61 -8 75 -10 52 -9 448 -11 515 -3 39 5 93 11 120
14 76 9 81 10 230 43 716 159 1334 666 1628 1337 96 219 176 503 202 715 4 30
9 66 10 80 18 141 23 390 11 530 -8 91 -41 279 -52 289 -9 9 -2375 8 -2380 -1
-7 -10 -7 -965 -1 -975 3 -5 312 -8 686 -7 502 0 681 -3 681 -11 0 -6 -7 -36
-16 -66 -9 -30 -17 -58 -18 -64 -1 -5 -12 -37 -26 -70 -82 -207 -223 -387
-402 -514 -27 -19 -48 -38 -48 -43 0 -4 -3 -7 -7 -6 -5 2 -48 -18 -98 -43
-106 -55 -208 -93 -325 -121 -164 -39 -189 -41 -420 -42 -225 -1 -327 14 -502
73 -512 174 -897 618 -998 1153 -34 179 -32 402 5 578 32 154 56 223 131 375
252 518 785 843 1367 834 334 -5 615 -99 875 -293 29 -21 55 -37 57 -35 36 31
735 734 735 739 0 6 -31 33 -115 101 -136 109 -421 273 -610 352 -124 51 -337
116 -435 132 -19 3 -42 8 -50 10 -17 5 -45 9 -155 25 -72 11 -498 24 -506 16z"/>
</g>
</svg>
